# xmcd
#
# Track frame offsets:
#	150
#	16392
#	33627
#	47995
#	60655
#	71217
#	85302
#	99727
#	114180
#	127507
#	138680
#
# Disc length: 2087 seconds
#
# Revision: 6
# Processed by: cddbd v1.5.2PL0 Copyright (c) Steve Scherf et al.
# Submitted via: EZCDAudioConverter 6.0.5.1
#
DISCID=9808250b
DTITLE=Merle Haggard - 1994
DYEAR=1994
DGENRE=Country
TTITLE0=I Am An Island
TTITLE1=In My Next Life
TTITLE2=Way Back In The Mountains
TTITLE3=What's New In New York City
TTITLE4=Set My Chickens Free
TTITLE5=Chores
TTITLE6=Valentine
TTITLE7=Solid As A Rock
TTITLE8=Bye, Bye Travelin' Blues
TTITLE9=Troubador
TTITLE10=Ramblin' Fever
EXTD=
EXTT0=
EXTT1=
EXTT2=
EXTT3=
EXTT4=
EXTT5=
EXTT6=
EXTT7=
EXTT8=
EXTT9=
EXTT10=
PLAYORDER=
